<svg width="50" height="50" viewBox="0 0 50 50" fill="none" xmlns="http://www.w3.org/2000/svg">
<g clip-path="url(#clip0_15_3)">
<path d="M50.0001 0C44.9434 0.347656 9.41803 3.73047 6.93463 28.0869C6.63287 30.6904 6.46197 33.3057 6.34967 35.9229L23.8174 18.4727C24.4278 17.8623 25.419 17.8623 26.0294 18.4727C26.6397 19.083 26.6397 20.0723 26.0294 20.6826L0.687561 45.999C-0.228455 46.9141 -0.228455 48.3984 0.687561 49.3135C1.60358 50.2285 3.08893 50.2285 4.00592 49.3135L9.58502 43.7402C13.6954 43.7266 17.8028 43.4932 21.8858 43.0215C27.1085 42.4902 31.3604 40.4365 34.8331 37.5H24.9747L39.3096 32.7266C40.4083 31.2725 41.3965 29.7275 42.2833 28.125H34.3594L44.7637 22.9287C48.8565 12.9746 49.8233 2.56445 50.0001 0Z" fill="black"/>
</g>
<defs>
<clipPath id="clip0_15_3">
<rect width="50" height="50" fill="white"/>
</clipPath>
</defs>
</svg>
