<svg width="13" height="13" viewBox="0 0 13 13" fill="none" xmlns="http://www.w3.org/2000/svg">
<path fill-rule="evenodd" clip-rule="evenodd" d="M12.3068 3.35156C12.3972 3.06516 12.3068 2.85695 11.9069 2.85695H10.5772C10.2418 2.85695 10.0869 3.03926 9.99654 3.23426C9.99654 3.23426 9.31252 4.89988 8.35732 5.97975C8.04756 6.29205 7.90563 6.39615 7.73779 6.39615C7.6474 6.39615 7.53111 6.29205 7.53111 6.0059V3.33811C7.53111 2.9999 7.42803 2.84375 7.14391 2.84375H5.05273C4.84606 2.84375 4.71707 2.9999 4.71707 3.15605C4.71707 3.48131 5.19467 3.55951 5.24621 4.47027V6.44922C5.24621 6.87857 5.17004 6.95703 5.00094 6.95703C4.54924 6.95703 3.45211 5.27846 2.79398 3.36578C2.66602 2.98695 2.53602 2.84375 2.20035 2.84375H0.857949C0.470742 2.84375 0.40625 3.0258 0.40625 3.22105C0.40625 3.57246 0.857949 5.34193 2.51012 7.68396C3.60725 9.28357 5.16902 10.1433 6.57592 10.1433C7.42803 10.1433 7.53111 9.94805 7.53111 9.62279V8.41268C7.53111 8.02242 7.60855 7.95742 7.87973 7.95742C8.0732 7.95742 8.42182 8.06127 9.20918 8.82908C10.1126 9.73984 10.2675 10.1562 10.771 10.1562H12.1004C12.4876 10.1562 12.6684 9.961 12.5651 9.58369C12.449 9.20639 12.01 8.65998 11.442 8.00947C11.1323 7.64537 10.6676 7.24191 10.5257 7.04666C10.3322 6.78641 10.3838 6.6823 10.5257 6.4482C10.5127 6.4482 12.1393 4.13207 12.3068 3.35055" fill="white"/>
</svg>
