<svg width="13" height="13" viewBox="0 0 13 13" fill="none" xmlns="http://www.w3.org/2000/svg">
<path d="M5.41667 8.12498L8.22792 6.49998L5.41667 4.87498V8.12498ZM11.6783 3.88373C11.7487 4.13831 11.7975 4.47956 11.83 4.9129C11.8679 5.34623 11.8842 5.71998 11.8842 6.04498L11.9167 6.49998C11.9167 7.68623 11.83 8.55831 11.6783 9.11623C11.5429 9.60373 11.2287 9.9179 10.7412 10.0533C10.4867 10.1237 10.0208 10.1725 9.30583 10.205C8.60167 10.2429 7.95708 10.2591 7.36125 10.2591L6.5 10.2916C4.23042 10.2916 2.81667 10.205 2.25875 10.0533C1.77125 9.9179 1.45708 9.60373 1.32167 9.11623C1.25125 8.86165 1.2025 8.5204 1.17 8.08706C1.13208 7.65373 1.11583 7.27998 1.11583 6.95498L1.08333 6.49998C1.08333 5.31373 1.17 4.44165 1.32167 3.88373C1.45708 3.39623 1.77125 3.08206 2.25875 2.94665C2.51333 2.87623 2.97917 2.82748 3.69417 2.79498C4.39833 2.75706 5.04292 2.74081 5.63875 2.74081L6.5 2.70831C8.76958 2.70831 10.1833 2.79498 10.7412 2.94665C11.2287 3.08206 11.5429 3.39623 11.6783 3.88373Z" fill="white"/>
</svg>
